<?xml version="1.0" encoding="utf-8"?>
<!-- Generator: Adobe Illustrator 18.0.0, SVG Export Plug-In . SVG Version: 6.00 Build 0)  -->
<!DOCTYPE svg PUBLIC "-//W3C//DTD SVG 1.1//EN" "http://www.w3.org/Graphics/SVG/1.1/DTD/svg11.dtd">
<svg version="1.1" id="Capa_1" xmlns="http://www.w3.org/2000/svg" xmlns:xlink="http://www.w3.org/1999/xlink" x="0px" y="0px"
	 viewBox="0 0 139 132" enable-background="new 0 0 139 132" xml:space="preserve">
<pattern  width="139" height="132" patternUnits="userSpaceOnUse" id="Nueva_muestra_de_motivo_1" viewBox="139.3 -264.4 139 132" overflow="visible">
	<g>
		<polygon fill="none" points="139.3,-264.4 278.3,-264.4 278.3,-132.4 139.3,-132.4 		"/>
		<g>
			<line fill="none" stroke="#000000" x1="278.3" y1="-0.4" x2="417.3" y2="-132.4"/>
		</g>
		<g>
			<line fill="none" stroke="#000000" x1="139.3" y1="-0.4" x2="278.3" y2="-132.4"/>
		</g>
		<g>
			<line fill="none" stroke="#000000" x1="0.3" y1="-0.4" x2="139.3" y2="-132.4"/>
		</g>
		<g>
			<line fill="none" stroke="#000000" x1="278.3" y1="-132.4" x2="417.3" y2="-264.4"/>
		</g>
		<g>
			<line fill="none" stroke="#000000" x1="139.3" y1="-132.4" x2="278.3" y2="-264.4"/>
			<line fill="none" stroke="#000000" x1="143.5" y1="-128.2" x2="282.5" y2="-260.2"/>
			<line fill="none" stroke="#000000" x1="147.7" y1="-124" x2="286.7" y2="-256"/>
			<line fill="none" stroke="#000000" x1="151.9" y1="-119.8" x2="290.9" y2="-251.8"/>
			<line fill="none" stroke="#000000" x1="156.1" y1="-115.6" x2="295.1" y2="-247.6"/>
			<line fill="none" stroke="#000000" x1="160.3" y1="-111.4" x2="299.3" y2="-243.4"/>
			<line fill="none" stroke="#000000" x1="164.5" y1="-107.3" x2="303.5" y2="-239.3"/>
			<line fill="none" stroke="#000000" x1="168.6" y1="-103.1" x2="307.6" y2="-235.1"/>
			<line fill="none" stroke="#000000" x1="172.8" y1="-98.9" x2="311.8" y2="-230.9"/>
			<line fill="none" stroke="#000000" x1="177" y1="-94.7" x2="316" y2="-226.7"/>
			<line fill="none" stroke="#000000" x1="181.2" y1="-90.5" x2="320.2" y2="-222.5"/>
			<line fill="none" stroke="#000000" x1="185.4" y1="-86.3" x2="324.4" y2="-218.3"/>
			<line fill="none" stroke="#000000" x1="189.6" y1="-82.1" x2="328.6" y2="-214.1"/>
			<line fill="none" stroke="#000000" x1="193.7" y1="-78" x2="332.7" y2="-210"/>
			<line fill="none" stroke="#000000" x1="197.9" y1="-73.8" x2="336.9" y2="-205.8"/>
			<line fill="none" stroke="#000000" x1="202.1" y1="-69.6" x2="341.1" y2="-201.6"/>
		</g>
		<g>
			<line fill="none" stroke="#000000" x1="0.3" y1="-132.4" x2="139.3" y2="-264.4"/>
			<line fill="none" stroke="#000000" x1="4.5" y1="-128.2" x2="143.5" y2="-260.2"/>
			<line fill="none" stroke="#000000" x1="8.7" y1="-124" x2="147.7" y2="-256"/>
			<line fill="none" stroke="#000000" x1="12.9" y1="-119.8" x2="151.9" y2="-251.8"/>
			<line fill="none" stroke="#000000" x1="17.1" y1="-115.6" x2="156.1" y2="-247.6"/>
			<line fill="none" stroke="#000000" x1="21.3" y1="-111.4" x2="160.3" y2="-243.4"/>
			<line fill="none" stroke="#000000" x1="25.5" y1="-107.3" x2="164.5" y2="-239.3"/>
			<line fill="none" stroke="#000000" x1="29.6" y1="-103.1" x2="168.6" y2="-235.1"/>
			<line fill="none" stroke="#000000" x1="33.8" y1="-98.9" x2="172.8" y2="-230.9"/>
			<line fill="none" stroke="#000000" x1="38" y1="-94.7" x2="177" y2="-226.7"/>
			<line fill="none" stroke="#000000" x1="42.2" y1="-90.5" x2="181.2" y2="-222.5"/>
			<line fill="none" stroke="#000000" x1="46.4" y1="-86.3" x2="185.4" y2="-218.3"/>
			<line fill="none" stroke="#000000" x1="50.6" y1="-82.1" x2="189.6" y2="-214.1"/>
			<line fill="none" stroke="#000000" x1="54.7" y1="-78" x2="193.7" y2="-210"/>
			<line fill="none" stroke="#000000" x1="58.9" y1="-73.8" x2="197.9" y2="-205.8"/>
			<line fill="none" stroke="#000000" x1="63.1" y1="-69.6" x2="202.1" y2="-201.6"/>
		</g>
		<g>
			<line fill="none" stroke="#000000" x1="278.3" y1="-264.4" x2="417.3" y2="-396.4"/>
		</g>
		<g>
			<line fill="none" stroke="#000000" x1="139.3" y1="-264.4" x2="278.3" y2="-396.4"/>
			<line fill="none" stroke="#000000" x1="143.5" y1="-260.2" x2="282.5" y2="-392.2"/>
			<line fill="none" stroke="#000000" x1="147.7" y1="-256" x2="286.7" y2="-388"/>
			<line fill="none" stroke="#000000" x1="151.9" y1="-251.8" x2="290.9" y2="-383.8"/>
			<line fill="none" stroke="#000000" x1="156.1" y1="-247.6" x2="295.1" y2="-379.6"/>
			<line fill="none" stroke="#000000" x1="160.3" y1="-243.4" x2="299.3" y2="-375.4"/>
			<line fill="none" stroke="#000000" x1="164.5" y1="-239.3" x2="303.5" y2="-371.3"/>
			<line fill="none" stroke="#000000" x1="168.6" y1="-235.1" x2="307.6" y2="-367.1"/>
			<line fill="none" stroke="#000000" x1="172.8" y1="-230.9" x2="311.8" y2="-362.9"/>
			<line fill="none" stroke="#000000" x1="177" y1="-226.7" x2="316" y2="-358.7"/>
			<line fill="none" stroke="#000000" x1="181.2" y1="-222.5" x2="320.2" y2="-354.5"/>
			<line fill="none" stroke="#000000" x1="185.4" y1="-218.3" x2="324.4" y2="-350.3"/>
			<line fill="none" stroke="#000000" x1="189.6" y1="-214.1" x2="328.6" y2="-346.1"/>
			<line fill="none" stroke="#000000" x1="193.7" y1="-210" x2="332.7" y2="-342"/>
			<line fill="none" stroke="#000000" x1="197.9" y1="-205.8" x2="336.9" y2="-337.8"/>
			<line fill="none" stroke="#000000" x1="202.1" y1="-201.6" x2="341.1" y2="-333.6"/>
		</g>
		<g>
			<line fill="none" stroke="#000000" x1="0.3" y1="-264.4" x2="139.3" y2="-396.4"/>
			<line fill="none" stroke="#000000" x1="4.5" y1="-260.2" x2="143.5" y2="-392.2"/>
			<line fill="none" stroke="#000000" x1="8.7" y1="-256" x2="147.7" y2="-388"/>
			<line fill="none" stroke="#000000" x1="12.9" y1="-251.8" x2="151.9" y2="-383.8"/>
			<line fill="none" stroke="#000000" x1="17.1" y1="-247.6" x2="156.1" y2="-379.6"/>
			<line fill="none" stroke="#000000" x1="21.3" y1="-243.4" x2="160.3" y2="-375.4"/>
			<line fill="none" stroke="#000000" x1="25.5" y1="-239.3" x2="164.5" y2="-371.3"/>
			<line fill="none" stroke="#000000" x1="29.6" y1="-235.1" x2="168.6" y2="-367.1"/>
			<line fill="none" stroke="#000000" x1="33.8" y1="-230.9" x2="172.8" y2="-362.9"/>
			<line fill="none" stroke="#000000" x1="38" y1="-226.7" x2="177" y2="-358.7"/>
			<line fill="none" stroke="#000000" x1="42.2" y1="-222.5" x2="181.2" y2="-354.5"/>
			<line fill="none" stroke="#000000" x1="46.4" y1="-218.3" x2="185.4" y2="-350.3"/>
			<line fill="none" stroke="#000000" x1="50.6" y1="-214.1" x2="189.6" y2="-346.1"/>
			<line fill="none" stroke="#000000" x1="54.7" y1="-210" x2="193.7" y2="-342"/>
			<line fill="none" stroke="#000000" x1="58.9" y1="-205.8" x2="197.9" y2="-337.8"/>
			<line fill="none" stroke="#000000" x1="63.1" y1="-201.6" x2="202.1" y2="-333.6"/>
		</g>
	</g>
</pattern>
<rect opacity="5.000000e-002" fill="url(#Nueva_muestra_de_motivo_1)" width="139" height="131.9"/>
</svg>
