<?xml version="1.0" encoding="utf-8"?>
<!-- Generator: Adobe Illustrator 17.0.0, SVG Export Plug-In . SVG Version: 6.00 Build 0)  -->
<!DOCTYPE svg PUBLIC "-//W3C//DTD SVG 1.1//EN" "http://www.w3.org/Graphics/SVG/1.1/DTD/svg11.dtd">
<svg version="1.1" id="Capa_1" xmlns="http://www.w3.org/2000/svg" xmlns:xlink="http://www.w3.org/1999/xlink" x="0px" y="0px"
	 width="50px" height="50px" viewBox="0 0 50 50" style="enable-background:new 0 0 50 50;" xml:space="preserve">
<style type="text/css">
	.st0{fill:#0083FF;}
</style>
<g>
	<path class="st0" d="M38.628,33.085c-0.006,0.018-0.011,0.035-0.017,0.052c0.006-0.017,0.013-0.033,0.019-0.05
		c0.017-0.049,0.032-0.098,0.048-0.149C38.663,32.987,38.646,33.036,38.628,33.085z"/>
	<path class="st0" d="M20.25,25.192h5.835L29.228,4.92c0.266-1.719-1.017-3.345-2.869-3.632c-1.851-0.286-3.567,0.874-3.834,2.593
		l-2.818,18.166c-0.085,0.446-0.743,0.421-0.785-0.04l-0.319-3.419L17.249,4.036C17.088,2.3,15.445,0.991,13.58,1.114
		s-3.245,1.63-3.084,3.366l1.93,20.72h6.815L20.25,25.192z"/>
	<path class="st0" d="M38.63,33.086c0.021-0.058,0.04-0.116,0.057-0.175c-0.003,0.009-0.006,0.018-0.009,0.027
		C38.663,32.988,38.647,33.038,38.63,33.086z"/>
	<path class="st0" d="M27.876,25.191h0.493c1.863,0,3.468,1.09,4.229,2.662l1.242-6.561c0.264-1.391-0.654-2.738-2.045-3.003
		c-0.161-0.03-0.321-0.043-0.481-0.043c-1.231,0-2.292,0.88-2.521,2.088L27.876,25.191z"/>
	<path class="st0" d="M18.452,34.372c-0.026-0.017-0.048-0.03-0.069-0.043c0,0,0,0,0,0.004
		C18.404,34.346,18.43,34.359,18.452,34.372z"/>
	<path class="st0" d="M18.382,34.328c-0.009-0.004-0.022-0.013-0.03-0.017c0.009,0.009,0.022,0.013,0.03,0.022
		C18.382,34.328,18.382,34.328,18.382,34.328z"/>
	<path class="st0" d="M35.413,36.477c-1.833-0.346-3.176-1.815-3.448-3.561c-0.862,1.022-2.153,1.676-3.596,1.676h-7.01
		c0.039,0.043,0.078,0.082,0.113,0.13c0.988,1.17,1.906,2.876,1.898,5.19c0,0.243-0.099,0.459-0.256,0.615
		c-0.156,0.156-0.373,0.251-0.611,0.251c-0.481,0-0.866-0.39-0.866-0.871c0.009-3.349-2.443-5.091-3.185-5.537
		c-0.022-0.013-0.048-0.026-0.069-0.039c-0.009-0.009-0.022-0.013-0.03-0.022c-0.004-0.004-0.009-0.004-0.013-0.009
		c-0.056-0.035-0.113-0.078-0.165-0.121c-0.009-0.013-0.022-0.022-0.035-0.031c-0.355-0.316-0.585-0.776-0.585-1.291h10.814
		c0.485,0,0.94-0.117,1.339-0.321c0.966-0.489,1.629-1.491,1.629-2.647c0-0.256-0.035-0.498-0.096-0.736
		c-0.325-1.283-1.486-2.231-2.873-2.231h-8.024l-0.966,0.004l-0.347,0.004l-6.442,0.031l-0.711,0.004
		c-1.023,0.009-1.863,0.754-2.032,1.729C9.83,28.796,9.821,28.895,9.817,29c0,0.017-0.004,0.035-0.004,0.056v2.422
		c0,0.472,0.009,0.931,0.022,1.382c0.347,12.205,4.831,16.034,14.016,16.034c9.917,0,14.002-4.705,14.566-12.954
		c-0.65,0.39-1.404,0.611-2.201,0.611C35.946,36.551,35.678,36.525,35.413,36.477z"/>
	<path class="st0" d="M9.813,32.859h0.022c-0.013-0.45-0.022-0.909-0.022-1.382V32.859z"/>
	<path class="st0" d="M39.742,23.367c-0.39-0.563-0.971-0.949-1.646-1.075c-0.161-0.03-0.321-0.048-0.481-0.048
		c-1.231,0-2.288,0.88-2.517,2.093l-1.234,6.516l1.234-6.516l-1.235,6.516l-0.173,0.918c-0.264,1.391,0.654,2.738,2.045,2.998
		c0.16,0.03,0.321,0.048,0.481,0.048c0.849,0,1.616-0.425,2.084-1.092c0.039-0.056,0.074-0.113,0.113-0.173
		c0.035-0.061,0.065-0.121,0.099-0.186c0.022-0.043,0.043-0.086,0.065-0.134c0.014-0.031,0.025-0.063,0.035-0.095
		c-0.011,0.032-0.022,0.064-0.036,0.095c-0.02,0.047-0.043,0.09-0.065,0.136c0.022-0.045,0.046-0.089,0.065-0.136
		c0.013-0.031,0.024-0.063,0.036-0.095c0.005-0.017,0.011-0.034,0.017-0.052c0.018-0.049,0.034-0.097,0.05-0.147
		c0.021-0.07,0.04-0.14,0.054-0.213l1.408-7.434C40.27,24.619,40.127,23.934,39.742,23.367z"/>
	<path class="st0" d="M38.732,32.725c-0.012,0.063-0.027,0.125-0.045,0.186C38.706,32.851,38.721,32.789,38.732,32.725z"/>
	<path class="st0" d="M38.687,32.911c0.018-0.061,0.033-0.122,0.045-0.186c-0.014,0.073-0.033,0.143-0.054,0.213
		C38.681,32.929,38.685,32.92,38.687,32.911z"/>
</g>
</svg>
