<?xml version="1.0" encoding="utf-8"?>
<!-- Generator: Adobe Illustrator 18.0.0, SVG Export Plug-In . SVG Version: 6.00 Build 0)  -->
<!DOCTYPE svg PUBLIC "-//W3C//DTD SVG 1.1//EN" "http://www.w3.org/Graphics/SVG/1.1/DTD/svg11.dtd">
<svg version="1.1" id="Capa_1" xmlns="http://www.w3.org/2000/svg" xmlns:xlink="http://www.w3.org/1999/xlink" x="0px" y="0px"
	 viewBox="0 0 104.1 35.4" enable-background="new 0 0 104.1 35.4" xml:space="preserve">
<g>
	<path fill="#2980b9" d="M54.6,11c1.1,1.1,1.6,2.8,1.6,4.9c0,1.6-0.3,3.2-0.8,4.8c-0.5,1.6-1.4,2.9-2.7,3.9
		c-1.3,1.1-2.9,1.6-4.9,1.6c-2,0-3.5-0.6-4.6-1.7c-1.1-1.2-1.6-2.8-1.6-4.9c0-1.6,0.3-3.2,0.8-4.8c0.6-1.6,1.5-2.9,2.7-3.9
		C46.4,9.8,48,9.3,50,9.3C52,9.3,53.5,9.9,54.6,11z M47.2,13.4c-0.6,0.9-1.1,1.9-1.3,3.1c-0.2,1.2-0.4,2.4-0.4,3.5
		c0,2.3,0.9,3.4,2.6,3.4c1.1,0,1.9-0.4,2.6-1.3c0.6-0.9,1.1-1.9,1.3-3.1c0.2-1.2,0.4-2.4,0.4-3.6c0-1.1-0.2-2-0.6-2.5
		c-0.4-0.5-1.1-0.8-1.9-0.8C48.7,12.1,47.8,12.5,47.2,13.4z"/>
	<path fill="#2980b9" d="M63.9,13.5c0.6-0.3,1.2-0.4,1.8-0.4c1.2,0,2.2,0.4,2.8,1.2c0.6,0.8,1,2,1,3.6c0,1.4-0.2,2.7-0.7,3.9
		s-1.2,2.3-2.3,3.1c-1.1,0.8-2.5,1.3-4.3,1.3c-1.6,0-3.3-0.3-5-1l2.3-16.6l3.7-0.4l-0.9,6.4C62.7,14.1,63.3,13.7,63.9,13.5z
		 M61.9,17.2l-0.8,6c0.5,0.2,1,0.3,1.6,0.3c0.7,0,1.3-0.3,1.8-0.9c0.5-0.6,0.8-1.3,1-2.2c0.2-0.9,0.3-1.7,0.3-2.6
		c0-0.8-0.1-1.4-0.4-1.7c-0.3-0.3-0.6-0.5-1.1-0.5C63.5,15.8,62.7,16.3,61.9,17.2z"/>
	<path fill="#2980b9" d="M74.5,22.7c0,0.2,0,0.4,0.1,0.5c0.1,0.1,0.2,0.1,0.4,0.1c0.1,0,0.3,0,0.6-0.1l0.4,2.6
		c-0.7,0.3-1.5,0.5-2.3,0.5c-0.9,0-1.6-0.2-2.1-0.7s-0.7-1.2-0.7-2.1c0-0.2,0-0.4,0-0.8l2-14l3.7-0.4l-2,14.3
		C74.5,22.5,74.5,22.6,74.5,22.7z"/>
	<path fill="#2980b9" d="M89.4,14.4l-1.2,7.9c0,0.2,0,0.4,0,0.5c0,0.3,0.1,0.5,0.2,0.6c0.1,0.1,0.3,0.3,0.5,0.3l-1,2.4
		c-0.7-0.1-1.3-0.3-1.8-0.6c-0.5-0.3-0.8-0.8-1-1.5c-1,1.4-2.2,2.1-3.7,2.1c-1.3,0-2.3-0.4-3-1.3c-0.7-0.9-1-2.1-1-3.6
		c0-1.3,0.2-2.6,0.7-3.8c0.5-1.3,1.3-2.3,2.3-3.1s2.4-1.3,4-1.3C86.2,13.1,87.9,13.5,89.4,14.4z M82.4,16.6
		c-0.5,0.6-0.8,1.3-1.1,2.1c-0.2,0.9-0.3,1.7-0.3,2.6c0,0.8,0.1,1.4,0.4,1.7s0.6,0.5,1,0.5c0.8,0,1.6-0.6,2.3-1.7l0.9-5.9
		c-0.5-0.2-0.9-0.2-1.4-0.2C83.5,15.7,82.9,16,82.4,16.6z"/>
	<path fill="#2980b9" d="M95,22.3c0,0.4,0.1,0.6,0.2,0.8c0.1,0.1,0.4,0.2,0.7,0.2c0.5,0,0.9-0.1,1.4-0.4l1,2.4
		c-0.5,0.3-1.1,0.5-1.7,0.7c-0.6,0.2-1.2,0.2-1.7,0.2c-1.2,0-2-0.3-2.6-0.9c-0.6-0.6-0.9-1.4-0.9-2.6c0-0.3,0-0.7,0.1-1l0.8-5.7
		h-1.7l0.3-2.6h1.9l0.8-2.7l3.1-0.3l-0.4,3.1H99L98.3,16h-2.4l-0.8,5.7C95,22,95,22.2,95,22.3z"/>
</g>
<g>
	<path opacity="0.3" fill="#2980b9" d="M19.8,2.5c-8.4-1-16,4.9-17,13.3c-1,8.4,4.9,16,13.3,17c8.4,1,16-4.9,17-13.3
		C34.1,11.1,28.2,3.5,19.8,2.5z M31.9,20.7c-0.9,7.4-7.7,12.7-15.1,11.8C9.3,31.6,4.1,24.8,5,17.4C5.9,10,12.6,4.7,20.1,5.6
		C27.5,6.5,32.8,13.3,31.9,20.7z"/>
	<path opacity="0.5" fill="#2980b9" d="M20.1,5.6C12.6,4.7,5.9,10,5,17.4c-0.9,7.4,4.4,14.2,11.8,15.1c7.4,0.9,14.2-4.4,15.1-11.8
		C32.8,13.3,27.5,6.5,20.1,5.6z M26.1,19.1c-1,2.3-2.8,4-5,5c-1,0.5-2.2,0.8-3.3,0.8c-1.4,0.1-2.8-0.2-4.2-0.8
		c-4.8-2.1-7-7.7-4.9-12.5c2.1-4.8,7.7-7,12.5-4.9C26,8.6,28.2,14.2,26.1,19.1z"/>
	<path opacity="0.75" fill="#2980b9" d="M21.1,6.5c-4.8-2.1-10.4,0.1-12.5,4.9C6.5,16.3,8.7,21.9,13.6,24c1.4,0.6,2.8,0.8,4.2,0.8
		c-0.8,0-1.6-0.2-2.4-0.5c-3.4-1.5-4.9-5.4-3.5-8.8c1.5-3.4,5.4-4.9,8.8-3.5c3.4,1.5,4.9,5.4,3.5,8.8c-0.6,1.5-1.7,2.6-3,3.2
		c2.2-0.9,4-2.6,5-5C28.2,14.2,26,8.6,21.1,6.5z"/>
	<path fill="#9EDAFF" d="M21.1,24c-1,0.4-2.2,0.7-3.3,0.8C18.9,24.8,20.1,24.5,21.1,24z"/>
	<path fill="#9EDAFF" d="M21.1,24c-1,0.4-2.2,0.7-3.3,0.8C18.9,24.8,20.1,24.5,21.1,24z"/>
	<path opacity="0.9" fill="#9EDAFF" d="M21.1,24c-1,0.4-2.2,0.7-3.3,0.8C18.9,24.8,20.1,24.5,21.1,24z"/>
</g>
</svg>
