<?xml version="1.0" encoding="utf-8"?>
<!-- Generator: Adobe Illustrator 17.0.0, SVG Export Plug-In . SVG Version: 6.00 Build 0)  -->
<!DOCTYPE svg PUBLIC "-//W3C//DTD SVG 1.1//EN" "http://www.w3.org/Graphics/SVG/1.1/DTD/svg11.dtd">
<svg version="1.1" id="Capa_1" xmlns="http://www.w3.org/2000/svg" xmlns:xlink="http://www.w3.org/1999/xlink" x="0px" y="0px"
	 width="182px" height="169.976px" viewBox="0 0 182 169.976" style="enable-background:new 0 0 182 169.976;" xml:space="preserve"
	>
<style type="text/css">
	.st0{fill:#C2E6FB;}
	.st1{fill:#1EBCEF;}
	.st2{opacity:0.65;fill:#5EA4CA;}
	.st3{opacity:0.9;fill:#FFFFFF;}
</style>
<path class="st0" d="M96.624,8.623C72.484,5.655,50.508,22.819,47.54,46.959c-2.968,24.14,14.195,46.115,38.335,49.083
	c24.14,2.968,46.115-14.195,49.083-38.335C137.927,33.567,120.763,11.592,96.624,8.623z M131.364,61.264
	c-2.64,21.468-22.183,36.732-43.651,34.093C66.244,92.717,50.98,73.174,53.62,51.705c2.64-21.468,22.183-36.732,43.651-34.093
	C118.739,20.252,134.003,39.796,131.364,61.264z"/>
<path class="st0" d="M97.271,17.613c-21.468-2.64-41.012,12.624-43.651,34.093c-2.64,21.468,12.624,41.012,34.092,43.651
	c21.468,2.64,41.012-12.624,43.651-34.093C134.003,39.796,118.739,20.252,97.271,17.613z M114.646,56.476
	c-2.921,6.715-8.2,11.669-14.443,14.331c-2.938,1.54-6.253,2.309-9.623,2.193c-4.045,0.176-8.191-0.539-12.154-2.263
	c-13.94-6.064-20.325-22.28-14.261-36.22c6.064-13.94,22.28-20.325,36.22-14.261C114.325,26.32,120.71,42.536,114.646,56.476z"/>
<path class="st1" d="M97.271,17.613c-21.468-2.64-41.012,12.624-43.651,34.093c-2.64,21.468,12.624,41.012,34.092,43.651
	c21.468,2.64,41.012-12.624,43.651-34.093C134.003,39.796,118.739,20.252,97.271,17.613z M114.646,56.476
	c-2.921,6.715-8.2,11.669-14.443,14.331c-2.938,1.54-6.253,2.309-9.623,2.193c-4.045,0.176-8.191-0.539-12.154-2.263
	c-13.94-6.064-20.325-22.28-14.261-36.22c6.064-13.94,22.28-20.325,36.22-14.261C114.325,26.32,120.71,42.536,114.646,56.476z"/>
<path class="st0" d="M100.385,20.256c-13.94-6.064-30.156,0.321-36.22,14.261c-6.064,13.94,0.321,30.156,14.261,36.22
	c3.963,1.724,8.109,2.439,12.154,2.263c-2.353-0.081-4.729-0.58-7.019-1.576C73.8,67.178,69.33,55.823,73.576,46.062
	c4.246-9.761,15.601-14.232,25.362-9.986c9.761,4.246,14.232,15.601,9.986,25.362c-1.824,4.192-4.963,7.4-8.72,9.369
	c6.243-2.662,11.522-7.617,14.443-14.331C120.71,42.536,114.325,26.32,100.385,20.256z"/>
<path class="st1" d="M100.385,20.256c-13.94-6.064-30.156,0.321-36.22,14.261c-6.064,13.94,0.321,30.156,14.261,36.22
	c3.963,1.724,8.109,2.439,12.154,2.263c-2.353-0.081-4.729-0.58-7.019-1.576C73.8,67.178,69.33,55.823,73.576,46.062
	c4.246-9.761,15.601-14.232,25.362-9.986c9.761,4.246,14.232,15.601,9.986,25.362c-1.824,4.192-4.963,7.4-8.72,9.369
	c6.243-2.662,11.522-7.617,14.443-14.331C120.71,42.536,114.325,26.32,100.385,20.256z"/>
<path class="st2" d="M100.385,20.256c-13.94-6.064-30.156,0.321-36.22,14.261c-6.064,13.94,0.321,30.156,14.261,36.22
	c3.963,1.724,8.109,2.439,12.154,2.263c-2.353-0.081-4.729-0.58-7.019-1.576C73.8,67.178,69.33,55.823,73.576,46.062
	c4.246-9.761,15.601-14.232,25.362-9.986c9.761,4.246,14.232,15.601,9.986,25.362c-1.824,4.192-4.963,7.4-8.72,9.369
	c6.243-2.662,11.522-7.617,14.443-14.331C120.71,42.536,114.325,26.32,100.385,20.256z"/>
<path class="st0" d="M100.203,70.807C97.17,72.101,93.911,72.855,90.58,73C93.95,73.116,97.265,72.348,100.203,70.807z"/>
<path class="st1" d="M100.203,70.807C97.17,72.101,93.911,72.855,90.58,73C93.95,73.116,97.265,72.348,100.203,70.807z"/>
<path class="st3" d="M100.203,70.807C97.17,72.101,93.911,72.855,90.58,73C93.95,73.116,97.265,72.348,100.203,70.807z"/>
<path class="st0" d="M108.923,61.439c4.246-9.761-0.225-21.116-9.986-25.362c-9.761-4.246-21.116,0.225-25.362,9.986
	c-4.246,9.761,0.225,21.116,9.986,25.362c2.29,0.996,4.666,1.495,7.019,1.576c3.33-0.145,6.589-0.899,9.623-2.193
	C103.96,68.838,107.099,65.631,108.923,61.439z"/>
<path class="st1" d="M108.923,61.439c4.246-9.761-0.225-21.116-9.986-25.362c-9.761-4.246-21.116,0.225-25.362,9.986
	c-4.246,9.761,0.225,21.116,9.986,25.362c2.29,0.996,4.666,1.495,7.019,1.576c3.33-0.145,6.589-0.899,9.623-2.193
	C103.96,68.838,107.099,65.631,108.923,61.439z"/>
<path class="st2" d="M108.923,61.439c4.246-9.761-0.225-21.116-9.986-25.362c-9.761-4.246-21.116,0.225-25.362,9.986
	c-4.246,9.761,0.225,21.116,9.986,25.362c2.29,0.996,4.666,1.495,7.019,1.576c3.33-0.145,6.589-0.899,9.623-2.193
	C103.96,68.838,107.099,65.631,108.923,61.439z"/>
<path class="st3" d="M108.923,61.439c4.246-9.761-0.225-21.116-9.986-25.362c-9.761-4.246-21.116,0.225-25.362,9.986
	c-4.246,9.761,0.225,21.116,9.986,25.362c2.29,0.996,4.666,1.495,7.019,1.576c3.33-0.145,6.589-0.899,9.623-2.193
	C103.96,68.838,107.099,65.631,108.923,61.439z"/>
<g>
	<path class="st1" d="M31.796,118.019c0,1.2-0.133,2.343-0.397,3.428c-0.266,1.085-0.646,2.092-1.141,3.022
		c-0.494,0.93-1.09,1.77-1.784,2.52c-0.695,0.75-1.476,1.391-2.341,1.92c-0.864,0.53-1.802,0.938-2.813,1.223
		c-1.01,0.285-2.069,0.428-3.18,0.428c-1.38,0-2.62-0.245-3.72-0.735c-1.101-0.489-2.038-1.165-2.813-2.024
		c-0.775-0.86-1.368-1.875-1.777-3.046c-0.41-1.17-0.615-2.439-0.615-3.81c0-1.2,0.132-2.343,0.397-3.428
		c0.265-1.085,0.645-2.092,1.14-3.022c0.495-0.93,1.09-1.77,1.785-2.52s1.475-1.393,2.34-1.928s1.803-0.945,2.813-1.23
		c1.01-0.284,2.075-0.427,3.195-0.427c1.38,0,2.62,0.245,3.72,0.734c1.101,0.49,2.035,1.165,2.806,2.025
		c0.77,0.86,1.359,1.878,1.77,3.053S31.796,116.648,31.796,118.019z M27.806,118.108c0-0.979-0.122-1.87-0.367-2.67
		s-0.601-1.485-1.065-2.055c-0.465-0.57-1.032-1.011-1.702-1.32s-1.425-0.465-2.266-0.465c-1.079,0-2.063,0.22-2.947,0.66
		c-0.885,0.439-1.643,1.064-2.272,1.875c-0.63,0.81-1.117,1.784-1.462,2.925c-0.346,1.14-0.518,2.405-0.518,3.795
		c0,0.98,0.12,1.87,0.359,2.67c0.24,0.8,0.59,1.482,1.05,2.048c0.46,0.564,1.022,1,1.688,1.305s1.423,0.457,2.273,0.457
		c1.09,0,2.079-0.22,2.97-0.659c0.89-0.44,1.649-1.061,2.28-1.86c0.63-0.8,1.117-1.768,1.462-2.902S27.806,119.509,27.806,118.108z"
		/>
	<path class="st1" d="M32.966,130.318l2.715-22.29h3.615l-1.215,9.945c0.72-1.01,1.522-1.811,2.407-2.4s1.827-0.885,2.827-0.885
		c0.64,0,1.223,0.117,1.748,0.353s0.973,0.588,1.342,1.058c0.371,0.47,0.656,1.064,0.855,1.785c0.199,0.72,0.301,1.564,0.301,2.534
		c0,0.87-0.09,1.726-0.271,2.565c-0.18,0.84-0.434,1.635-0.764,2.385s-0.723,1.44-1.178,2.07c-0.456,0.63-0.963,1.175-1.523,1.635
		c-0.56,0.46-1.157,0.82-1.792,1.08s-1.293,0.39-1.973,0.39c-0.79,0-1.492-0.157-2.107-0.472c-0.615-0.315-1.133-0.743-1.553-1.283
		l-0.12,0.511c-0.08,0.359-0.215,0.62-0.404,0.779c-0.19,0.16-0.49,0.24-0.9,0.24H32.966z M41.876,117.599
		c-0.41,0-0.825,0.14-1.245,0.42s-0.828,0.665-1.223,1.155c-0.396,0.489-0.76,1.067-1.095,1.732
		c-0.336,0.665-0.623,1.377-0.863,2.137l-0.449,3.676c0.34,0.37,0.729,0.63,1.17,0.779c0.439,0.15,0.875,0.226,1.305,0.226
		c0.66,0,1.26-0.205,1.8-0.615s1.003-0.945,1.388-1.605c0.385-0.659,0.683-1.402,0.893-2.228c0.21-0.824,0.315-1.652,0.315-2.482
		c0-1.08-0.176-1.882-0.525-2.407C42.995,117.861,42.506,117.599,41.876,117.599z"/>
	<path class="st1" d="M59.201,117.823c-0.11,0.16-0.215,0.272-0.315,0.338c-0.1,0.064-0.229,0.098-0.39,0.098
		c-0.17,0-0.345-0.051-0.525-0.15c-0.18-0.1-0.388-0.212-0.622-0.338c-0.235-0.125-0.505-0.237-0.811-0.337
		c-0.305-0.1-0.672-0.15-1.102-0.15c-0.791,0-1.396,0.178-1.815,0.532c-0.42,0.355-0.63,0.798-0.63,1.328
		c0,0.31,0.087,0.572,0.263,0.787c0.175,0.216,0.402,0.403,0.683,0.563c0.279,0.16,0.6,0.308,0.96,0.442
		c0.359,0.136,0.729,0.28,1.109,0.436s0.75,0.33,1.11,0.524c0.359,0.195,0.68,0.433,0.96,0.713c0.279,0.28,0.507,0.617,0.683,1.013
		c0.175,0.395,0.263,0.867,0.263,1.417c0,0.74-0.148,1.445-0.443,2.115s-0.717,1.258-1.267,1.763
		c-0.551,0.505-1.216,0.905-1.995,1.2c-0.78,0.295-1.65,0.442-2.61,0.442c-0.49,0-0.963-0.048-1.418-0.143
		c-0.455-0.096-0.882-0.228-1.282-0.397c-0.399-0.17-0.763-0.37-1.087-0.601c-0.325-0.229-0.603-0.479-0.833-0.75l0.9-1.409
		c0.109-0.17,0.242-0.301,0.397-0.391c0.154-0.09,0.337-0.135,0.547-0.135s0.4,0.065,0.57,0.195s0.37,0.272,0.6,0.427
		c0.23,0.155,0.508,0.298,0.833,0.428s0.742,0.195,1.253,0.195c0.409,0,0.772-0.055,1.087-0.165c0.315-0.11,0.58-0.26,0.795-0.45
		c0.215-0.189,0.378-0.41,0.487-0.66c0.11-0.25,0.165-0.515,0.165-0.795c0-0.34-0.085-0.622-0.255-0.848
		c-0.17-0.225-0.397-0.42-0.683-0.585c-0.284-0.165-0.607-0.31-0.967-0.435c-0.36-0.125-0.728-0.258-1.103-0.397
		s-0.74-0.3-1.096-0.48c-0.354-0.18-0.675-0.407-0.96-0.683c-0.284-0.274-0.513-0.609-0.683-1.005
		c-0.17-0.395-0.255-0.877-0.255-1.447c0-0.68,0.13-1.343,0.391-1.987c0.26-0.646,0.643-1.215,1.147-1.71s1.125-0.893,1.859-1.192
		c0.735-0.301,1.578-0.45,2.528-0.45c0.979,0,1.847,0.167,2.603,0.502c0.755,0.336,1.392,0.763,1.912,1.283L59.201,117.823z"/>
	<path class="st1" d="M73.75,118.498c0,0.69-0.137,1.32-0.412,1.891c-0.275,0.569-0.768,1.08-1.478,1.529
		c-0.71,0.45-1.673,0.838-2.888,1.163s-2.763,0.582-4.643,0.772v0.195c0,2.42,1.025,3.63,3.075,3.63c0.44,0,0.83-0.043,1.17-0.128
		s0.638-0.188,0.893-0.308s0.485-0.255,0.69-0.405c0.205-0.149,0.395-0.284,0.569-0.404s0.348-0.223,0.518-0.308
		s0.355-0.128,0.556-0.128c0.12,0,0.239,0.028,0.359,0.083s0.22,0.138,0.301,0.247l0.944,1.141c-0.53,0.529-1.05,0.989-1.56,1.38
		c-0.51,0.39-1.03,0.71-1.561,0.96s-1.09,0.435-1.68,0.555s-1.235,0.18-1.935,0.18c-0.9,0-1.716-0.152-2.445-0.457
		c-0.73-0.305-1.355-0.735-1.875-1.29c-0.521-0.555-0.923-1.225-1.208-2.01c-0.284-0.785-0.427-1.663-0.427-2.633
		c0-0.81,0.087-1.604,0.262-2.385s0.428-1.521,0.758-2.22c0.33-0.7,0.735-1.346,1.215-1.936c0.48-0.59,1.022-1.1,1.628-1.53
		c0.604-0.43,1.27-0.765,1.995-1.005c0.725-0.24,1.502-0.359,2.332-0.359c0.811,0,1.518,0.114,2.123,0.345
		c0.604,0.23,1.109,0.527,1.515,0.893s0.707,0.772,0.907,1.223C73.65,117.628,73.75,118.068,73.75,118.498z M68.695,117.299
		c-0.5,0-0.965,0.103-1.395,0.307c-0.431,0.205-0.817,0.493-1.163,0.863c-0.345,0.37-0.645,0.813-0.899,1.327
		s-0.458,1.077-0.607,1.688c1.239-0.17,2.237-0.354,2.992-0.555s1.34-0.42,1.755-0.66s0.69-0.495,0.825-0.766
		c0.135-0.27,0.202-0.56,0.202-0.869c0-0.15-0.032-0.306-0.098-0.466c-0.064-0.159-0.165-0.302-0.3-0.427s-0.31-0.23-0.524-0.315
		C69.268,117.341,69.005,117.299,68.695,117.299z"/>
	<path class="st1" d="M74.95,130.318l1.875-15.405H78.7c0.359,0,0.654,0.08,0.885,0.24c0.229,0.16,0.345,0.415,0.345,0.765
		c0,0.07-0.005,0.19-0.015,0.36s-0.021,0.438-0.03,0.803s-0.03,0.877-0.06,1.537c0.63-1.21,1.319-2.145,2.069-2.805
		s1.53-0.99,2.341-0.99c0.409,0,0.824,0.09,1.244,0.271l-0.675,3.54c-0.5-0.21-0.975-0.315-1.425-0.315
		c-0.89,0-1.67,0.425-2.34,1.275c-0.67,0.85-1.221,2.18-1.65,3.989l-0.81,6.735H74.95z"/>
	<path class="st1" d="M86.11,114.929h3.03c0.26,0,0.467,0.064,0.622,0.194c0.155,0.131,0.252,0.295,0.293,0.495l1.619,8.22
		c0.101,0.49,0.17,0.979,0.21,1.463c0.04,0.485,0.075,0.968,0.105,1.447c0.14-0.479,0.292-0.957,0.457-1.433
		c0.165-0.475,0.362-0.967,0.593-1.478l3.675-8.22c0.091-0.2,0.228-0.364,0.413-0.495c0.185-0.13,0.387-0.194,0.607-0.194h2.925
		l-7.59,15.39h-3.12L86.11,114.929z"/>
	<path class="st1" d="M112.36,130.318h-1.95c-0.45,0-0.765-0.105-0.945-0.315c-0.18-0.21-0.27-0.475-0.27-0.795l0.12-2.1
		c-0.681,1.06-1.445,1.897-2.295,2.513c-0.851,0.615-1.785,0.922-2.806,0.922c-0.58,0-1.122-0.114-1.627-0.345
		c-0.505-0.229-0.945-0.572-1.32-1.027s-0.67-1.025-0.885-1.71s-0.322-1.487-0.322-2.407s0.114-1.815,0.345-2.686
		c0.229-0.87,0.558-1.688,0.982-2.452c0.425-0.766,0.938-1.468,1.537-2.107c0.601-0.64,1.272-1.19,2.018-1.65
		s1.55-0.817,2.415-1.072s1.777-0.383,2.738-0.383c0.689,0,1.382,0.051,2.077,0.15c0.694,0.1,1.377,0.28,2.048,0.54L112.36,130.318z
		 M105.67,127.514c0.41,0,0.813-0.141,1.208-0.42c0.395-0.28,0.768-0.668,1.117-1.163s0.675-1.077,0.976-1.747
		c0.3-0.67,0.56-1.39,0.779-2.16l0.585-4.65c-0.27-0.029-0.52-0.045-0.75-0.045c-0.83,0-1.6,0.19-2.31,0.57
		s-1.325,0.893-1.845,1.537c-0.521,0.646-0.928,1.396-1.223,2.25c-0.295,0.855-0.442,1.758-0.442,2.708c0,1.08,0.17,1.87,0.51,2.37
		S105.08,127.514,105.67,127.514z"/>
	<path class="st1" d="M117.22,127.184c0-0.07,0-0.152,0-0.248c0-0.095,0.008-0.234,0.022-0.42c0.015-0.185,0.04-0.43,0.075-0.734
		c0.035-0.306,0.082-0.698,0.143-1.178l0.854-6.9h-1.455c-0.17,0-0.308-0.053-0.412-0.157c-0.105-0.105-0.157-0.263-0.157-0.473
		c0-0.01,0.002-0.03,0.007-0.06c0.005-0.03,0.013-0.098,0.022-0.203c0.01-0.104,0.027-0.262,0.053-0.473
		c0.025-0.21,0.058-0.504,0.098-0.885l2.34-0.404l1.23-4.2c0.06-0.2,0.162-0.355,0.307-0.465c0.146-0.11,0.323-0.165,0.533-0.165
		h1.979l-0.6,4.845h3.72l-0.314,2.64h-3.735l-0.825,6.705c-0.05,0.41-0.088,0.735-0.112,0.976c-0.025,0.239-0.045,0.427-0.06,0.563
		c-0.016,0.135-0.025,0.229-0.03,0.284c-0.005,0.056-0.008,0.093-0.008,0.113c0,0.38,0.093,0.68,0.277,0.899
		c0.186,0.221,0.447,0.33,0.788,0.33c0.21,0,0.39-0.027,0.54-0.082c0.149-0.056,0.279-0.113,0.39-0.173s0.207-0.117,0.293-0.173
		c0.084-0.055,0.167-0.082,0.247-0.082c0.11,0,0.197,0.027,0.263,0.082c0.064,0.056,0.122,0.138,0.172,0.248l0.795,1.8
		c-0.55,0.45-1.16,0.79-1.829,1.02c-0.671,0.23-1.346,0.346-2.025,0.346c-1.09,0-1.952-0.295-2.588-0.885
		C117.582,129.083,117.25,128.254,117.22,127.184z"/>
	<path class="st1" d="M132.22,130.543c-0.851,0-1.638-0.143-2.363-0.427c-0.725-0.285-1.35-0.703-1.875-1.253
		c-0.524-0.55-0.938-1.225-1.237-2.025c-0.3-0.8-0.45-1.715-0.45-2.744c0-1.33,0.213-2.57,0.638-3.721
		c0.425-1.149,1.005-2.145,1.74-2.984s1.593-1.5,2.572-1.98c0.98-0.479,2.025-0.72,3.136-0.72c0.85,0,1.637,0.143,2.362,0.428
		c0.725,0.284,1.353,0.702,1.882,1.252c0.53,0.55,0.945,1.226,1.245,2.025s0.45,1.715,0.45,2.745c0,1.319-0.215,2.553-0.645,3.697
		c-0.431,1.146-1.013,2.14-1.748,2.985c-0.734,0.845-1.593,1.51-2.572,1.994C134.374,130.301,133.329,130.543,132.22,130.543z
		 M132.55,127.693c0.619,0,1.18-0.178,1.68-0.532c0.5-0.355,0.928-0.83,1.282-1.425c0.355-0.596,0.628-1.288,0.817-2.078
		c0.19-0.79,0.285-1.62,0.285-2.49c0-1.25-0.213-2.17-0.638-2.76s-1.067-0.885-1.927-0.885c-0.62,0-1.181,0.175-1.681,0.525
		c-0.5,0.35-0.925,0.824-1.274,1.425c-0.351,0.6-0.62,1.295-0.811,2.085c-0.189,0.79-0.285,1.625-0.285,2.505
		c0,1.25,0.21,2.167,0.631,2.752C131.05,127.4,131.689,127.693,132.55,127.693z"/>
	<path class="st1" d="M141.729,130.318l1.875-15.405h1.875c0.359,0,0.654,0.08,0.885,0.24c0.229,0.16,0.345,0.415,0.345,0.765
		c0,0.07-0.005,0.19-0.015,0.36s-0.021,0.438-0.03,0.803s-0.03,0.877-0.06,1.537c0.63-1.21,1.319-2.145,2.069-2.805
		s1.53-0.99,2.341-0.99c0.409,0,0.824,0.09,1.244,0.271l-0.675,3.54c-0.5-0.21-0.975-0.315-1.425-0.315
		c-0.89,0-1.67,0.425-2.34,1.275c-0.67,0.85-1.221,2.18-1.65,3.989l-0.81,6.735H141.729z"/>
	<path class="st1" d="M158.47,114.929l-1.846,15.39h-3.659l1.845-15.39H158.47z M159.399,110.443c0,0.32-0.067,0.62-0.202,0.9
		c-0.136,0.279-0.311,0.524-0.525,0.734s-0.463,0.378-0.742,0.503c-0.28,0.125-0.57,0.188-0.87,0.188
		c-0.29,0-0.572-0.063-0.848-0.188s-0.518-0.293-0.728-0.503s-0.378-0.455-0.502-0.734c-0.126-0.28-0.188-0.58-0.188-0.9
		s0.064-0.625,0.194-0.915s0.3-0.542,0.51-0.758c0.211-0.215,0.453-0.385,0.728-0.51c0.275-0.125,0.558-0.188,0.848-0.188
		c0.3,0,0.59,0.063,0.87,0.188s0.527,0.293,0.742,0.503c0.216,0.21,0.388,0.46,0.518,0.75S159.399,110.113,159.399,110.443z"/>
	<path class="st1" d="M166.149,130.543c-0.851,0-1.638-0.143-2.363-0.427c-0.725-0.285-1.35-0.703-1.875-1.253
		c-0.524-0.55-0.938-1.225-1.237-2.025c-0.3-0.8-0.45-1.715-0.45-2.744c0-1.33,0.213-2.57,0.638-3.721
		c0.425-1.149,1.005-2.145,1.74-2.984s1.593-1.5,2.572-1.98c0.98-0.479,2.025-0.72,3.136-0.72c0.85,0,1.637,0.143,2.362,0.428
		c0.725,0.284,1.353,0.702,1.882,1.252c0.53,0.55,0.945,1.226,1.245,2.025s0.45,1.715,0.45,2.745c0,1.319-0.215,2.553-0.645,3.697
		c-0.431,1.146-1.013,2.14-1.748,2.985c-0.734,0.845-1.593,1.51-2.572,1.994C168.304,130.301,167.259,130.543,166.149,130.543z
		 M166.479,127.693c0.619,0,1.18-0.178,1.68-0.532c0.5-0.355,0.928-0.83,1.282-1.425c0.355-0.596,0.628-1.288,0.817-2.078
		c0.19-0.79,0.285-1.62,0.285-2.49c0-1.25-0.213-2.17-0.638-2.76s-1.067-0.885-1.927-0.885c-0.62,0-1.181,0.175-1.681,0.525
		c-0.5,0.35-0.925,0.824-1.274,1.425c-0.351,0.6-0.62,1.295-0.811,2.085c-0.189,0.79-0.285,1.625-0.285,2.505
		c0,1.25,0.21,2.167,0.631,2.752C164.979,127.4,165.619,127.693,166.479,127.693z"/>
	<path class="st1" d="M56.155,139.123H45.94l-1.065,8.655h8.505l-0.164,1.185h-8.491l-1.095,8.925h10.26l-0.164,1.23H41.979
		l2.61-21.225h11.729L56.155,139.123z"/>
	<path class="st1" d="M58.074,159.118l2.64-21.825h1.396l-2.655,21.825H58.074z"/>
	<path class="st1" d="M75.609,147.043c0,0.41-0.056,0.801-0.165,1.17c-0.11,0.37-0.306,0.721-0.585,1.05
		c-0.28,0.33-0.66,0.644-1.141,0.938c-0.479,0.296-1.095,0.565-1.845,0.811s-1.646,0.465-2.685,0.66
		c-1.041,0.194-2.261,0.367-3.66,0.518c-0.021,0.21-0.035,0.417-0.045,0.622c-0.011,0.205-0.016,0.407-0.016,0.607
		c0,1.49,0.338,2.655,1.013,3.495s1.692,1.26,3.053,1.26c0.53,0,1.007-0.057,1.433-0.172c0.425-0.115,0.805-0.263,1.14-0.442
		c0.335-0.181,0.63-0.37,0.885-0.57s0.482-0.39,0.683-0.57c0.2-0.18,0.373-0.327,0.518-0.442s0.277-0.173,0.397-0.173
		s0.226,0.051,0.315,0.15l0.33,0.39c-0.49,0.521-0.968,0.968-1.433,1.343s-0.936,0.683-1.41,0.923
		c-0.476,0.24-0.968,0.417-1.478,0.532s-1.055,0.173-1.635,0.173c-0.83,0-1.567-0.138-2.213-0.413
		c-0.645-0.274-1.188-0.665-1.627-1.17c-0.44-0.505-0.775-1.12-1.006-1.845c-0.229-0.725-0.345-1.537-0.345-2.438
		c0-0.75,0.075-1.505,0.226-2.265c0.149-0.761,0.372-1.49,0.667-2.19s0.66-1.354,1.095-1.965c0.436-0.61,0.933-1.141,1.493-1.59
		c0.56-0.45,1.18-0.805,1.859-1.065c0.681-0.26,1.415-0.39,2.205-0.39c0.73,0,1.348,0.103,1.853,0.308s0.915,0.46,1.23,0.765
		c0.314,0.305,0.542,0.635,0.683,0.99C75.539,146.4,75.609,146.733,75.609,147.043z M71.559,145.033c-0.8,0-1.522,0.17-2.167,0.51
		c-0.646,0.34-1.215,0.793-1.71,1.357c-0.495,0.565-0.91,1.221-1.245,1.965c-0.335,0.745-0.583,1.522-0.742,2.333
		c1.27-0.14,2.364-0.303,3.285-0.487c0.92-0.186,1.699-0.38,2.34-0.585c0.64-0.205,1.157-0.428,1.552-0.668
		c0.396-0.24,0.703-0.487,0.923-0.742s0.367-0.518,0.442-0.788c0.075-0.27,0.112-0.55,0.112-0.84c0-0.21-0.047-0.438-0.142-0.683
		c-0.096-0.244-0.253-0.467-0.473-0.667c-0.221-0.2-0.508-0.367-0.863-0.503C72.517,145.101,72.079,145.033,71.559,145.033z"/>
	<path class="st1" d="M86.911,157.843c-0.475,0.381-0.939,0.681-1.395,0.9s-0.918,0.37-1.388,0.45s-0.97,0.12-1.5,0.12
		c-0.86,0-1.607-0.148-2.242-0.442c-0.636-0.295-1.163-0.708-1.583-1.238c-0.42-0.529-0.734-1.159-0.945-1.89
		c-0.21-0.729-0.314-1.524-0.314-2.385c0-0.79,0.082-1.572,0.247-2.348s0.402-1.513,0.713-2.213c0.31-0.699,0.685-1.345,1.125-1.935
		c0.439-0.59,0.935-1.1,1.485-1.53c0.55-0.43,1.147-0.768,1.792-1.013c0.646-0.244,1.333-0.367,2.063-0.367
		c0.49,0,0.933,0.048,1.327,0.145c0.396,0.097,0.758,0.232,1.088,0.41c0.33,0.177,0.63,0.392,0.9,0.643
		c0.27,0.252,0.52,0.533,0.75,0.843l-0.42,0.495c-0.091,0.11-0.195,0.165-0.315,0.165c-0.1,0-0.223-0.08-0.367-0.24
		c-0.146-0.16-0.341-0.332-0.585-0.518c-0.245-0.185-0.563-0.357-0.953-0.518c-0.39-0.159-0.88-0.24-1.47-0.24
		c-0.84,0-1.622,0.226-2.348,0.675c-0.725,0.449-1.354,1.054-1.89,1.813c-0.535,0.76-0.955,1.636-1.26,2.63
		c-0.306,0.994-0.458,2.03-0.458,3.109c0,0.688,0.077,1.328,0.232,1.917c0.155,0.59,0.396,1.1,0.72,1.528
		c0.325,0.43,0.732,0.765,1.223,1.004c0.49,0.24,1.07,0.359,1.74,0.359c0.53,0,1.005-0.057,1.425-0.172s0.793-0.258,1.118-0.428
		c0.324-0.17,0.609-0.357,0.854-0.563s0.463-0.393,0.652-0.563c0.19-0.17,0.353-0.313,0.487-0.428
		c0.136-0.114,0.258-0.172,0.368-0.172c0.109,0,0.215,0.05,0.314,0.149l0.315,0.39C87.889,156.979,87.386,157.463,86.911,157.843z"
		/>
	<path class="st1" d="M92.004,156.613c0-0.061,0.002-0.135,0.008-0.226c0.005-0.09,0.015-0.225,0.029-0.404
		c0.016-0.181,0.04-0.413,0.075-0.697c0.035-0.285,0.077-0.647,0.128-1.088l1.02-8.475h-1.965c-0.2,0-0.3-0.096-0.3-0.285
		l0.075-0.615l2.354-0.18l0.99-5.341c0.02-0.09,0.064-0.17,0.135-0.239c0.07-0.07,0.155-0.105,0.255-0.105h0.69l-0.705,5.7h4.32
		l-0.12,1.065h-4.32l-1.035,8.42c-0.05,0.409-0.09,0.744-0.12,1.003c-0.029,0.26-0.055,0.473-0.074,0.638
		c-0.021,0.164-0.033,0.287-0.038,0.366c-0.005,0.08-0.008,0.14-0.008,0.18c0,0.649,0.152,1.119,0.458,1.408
		c0.305,0.29,0.697,0.435,1.178,0.435c0.33,0,0.622-0.052,0.877-0.157c0.255-0.104,0.478-0.22,0.668-0.345
		c0.189-0.125,0.345-0.24,0.465-0.346c0.12-0.104,0.21-0.157,0.27-0.157c0.061,0,0.105,0.013,0.136,0.038
		c0.029,0.024,0.06,0.063,0.09,0.112l0.27,0.63c-0.399,0.424-0.885,0.765-1.455,1.022c-0.569,0.259-1.14,0.388-1.71,0.388
		c-0.819,0-1.462-0.226-1.927-0.675C92.251,158.233,92.014,157.543,92.004,156.613z"/>
	<path class="st1" d="M105.639,159.313c-0.8,0-1.527-0.141-2.183-0.42c-0.654-0.28-1.215-0.686-1.68-1.216
		c-0.465-0.529-0.825-1.172-1.08-1.927s-0.382-1.613-0.382-2.573c0-1.209,0.18-2.372,0.54-3.487
		c0.359-1.114,0.867-2.098,1.522-2.947c0.654-0.85,1.432-1.527,2.332-2.032s1.89-0.758,2.97-0.758c0.8,0,1.527,0.143,2.183,0.428
		s1.215,0.689,1.681,1.215c0.465,0.525,0.824,1.168,1.079,1.928c0.256,0.76,0.383,1.61,0.383,2.55c0,1.21-0.183,2.37-0.548,3.479
		c-0.364,1.11-0.872,2.093-1.522,2.948c-0.649,0.854-1.425,1.537-2.324,2.047C107.709,159.059,106.719,159.313,105.639,159.313z
		 M105.759,158.188c0.87,0,1.663-0.228,2.378-0.683s1.327-1.06,1.837-1.815c0.511-0.755,0.902-1.62,1.178-2.595
		s0.413-1.978,0.413-3.008c0-1.6-0.355-2.835-1.065-3.705s-1.695-1.305-2.955-1.305c-0.58,0-1.125,0.103-1.635,0.308
		s-0.98,0.492-1.41,0.862s-0.817,0.808-1.162,1.313c-0.346,0.505-0.636,1.058-0.87,1.657c-0.235,0.601-0.415,1.235-0.54,1.905
		s-0.188,1.355-0.188,2.055c0,1.591,0.353,2.823,1.058,3.698S104.489,158.188,105.759,158.188z"/>
	<path class="st1" d="M115.479,159.118l1.8-14.97h0.646c0.35,0,0.524,0.18,0.524,0.54l-0.435,4.439
		c0.68-1.63,1.457-2.888,2.332-3.772s1.808-1.327,2.798-1.327c0.41,0,0.83,0.085,1.26,0.255l-0.255,1.335
		c-0.46-0.17-0.891-0.255-1.29-0.255c-1.07,0-2.032,0.527-2.888,1.582c-0.854,1.056-1.588,2.578-2.197,4.567l-0.9,7.605H115.479z"/>
	<path class="st1" d="M135.039,159.118h-0.69c-0.189,0-0.322-0.045-0.397-0.135s-0.112-0.2-0.112-0.33l0.495-4.695
		c-0.38,0.801-0.798,1.527-1.253,2.183s-0.939,1.218-1.455,1.688c-0.515,0.47-1.058,0.835-1.627,1.095
		c-0.57,0.26-1.16,0.391-1.771,0.391c-0.63,0-1.18-0.123-1.649-0.368c-0.471-0.244-0.862-0.592-1.178-1.042
		s-0.553-0.995-0.713-1.635c-0.16-0.641-0.239-1.36-0.239-2.16c0-0.87,0.109-1.723,0.33-2.558c0.22-0.835,0.532-1.628,0.938-2.378
		c0.404-0.75,0.887-1.439,1.447-2.069c0.56-0.63,1.178-1.175,1.853-1.636c0.675-0.459,1.397-0.819,2.167-1.08
		c0.771-0.26,1.565-0.39,2.385-0.39c0.601,0,1.16,0.053,1.681,0.157c0.52,0.105,1.035,0.288,1.545,0.548L135.039,159.118z
		 M128.693,158.128c0.57,0,1.133-0.159,1.688-0.479c0.556-0.32,1.083-0.772,1.583-1.357s0.973-1.29,1.417-2.115
		c0.445-0.825,0.843-1.737,1.193-2.737l0.75-6.075c-0.591-0.2-1.23-0.3-1.92-0.3c-0.671,0-1.32,0.112-1.95,0.337
		c-0.63,0.226-1.223,0.538-1.777,0.938c-0.556,0.4-1.065,0.875-1.53,1.425c-0.465,0.551-0.868,1.153-1.208,1.808
		c-0.34,0.655-0.603,1.348-0.787,2.078c-0.186,0.729-0.277,1.475-0.277,2.234c0,1.341,0.228,2.383,0.683,3.128
		S127.724,158.128,128.693,158.128z"/>
	<path class="st1" d="M140.004,159.118l2.64-21.825h1.396l-2.655,21.825H140.004z"/>
</g>
</svg>
