<?xml version="1.0" encoding="utf-8"?>
<!-- Generator: Adobe Illustrator 17.0.0, SVG Export Plug-In . SVG Version: 6.00 Build 0)  -->
<!DOCTYPE svg PUBLIC "-//W3C//DTD SVG 1.1//EN" "http://www.w3.org/Graphics/SVG/1.1/DTD/svg11.dtd">
<svg version="1.1" id="Capa_1" xmlns="http://www.w3.org/2000/svg" xmlns:xlink="http://www.w3.org/1999/xlink" x="0px" y="0px"
	 width="102px" height="99.75px" viewBox="40.25 2.738 102 99.75" style="enable-background:new 40.25 2.738 102 99.75;"
	 xml:space="preserve">
<style type="text/css">
	.st0{fill:#C2E6FB;}
	.st1{fill:#1EBCEF;}
	.st2{opacity:0.65;fill:#5EA4CA;enable-background:new    ;}
	.st3{opacity:0.9;fill:#FFFFFF;enable-background:new    ;}
</style>
<path class="st0" d="M96.624,8.623C72.484,5.655,50.508,22.819,47.54,46.959s14.195,46.115,38.335,49.083
	c24.14,2.968,46.115-14.195,49.083-38.335C137.927,33.567,120.763,11.592,96.624,8.623z M131.364,61.264
	c-2.64,21.468-22.183,36.732-43.651,34.093C66.244,92.717,50.98,73.174,53.62,51.705c2.64-21.468,22.183-36.732,43.651-34.093
	C118.739,20.252,134.003,39.796,131.364,61.264z"/>
<path class="st0" d="M97.271,17.613c-21.468-2.64-41.012,12.624-43.651,34.093c-2.64,21.468,12.624,41.012,34.092,43.651
	c21.468,2.64,41.012-12.624,43.651-34.093C134.003,39.796,118.739,20.252,97.271,17.613z M114.646,56.476
	c-2.921,6.715-8.2,11.669-14.443,14.331c-2.938,1.54-6.253,2.309-9.623,2.193c-4.045,0.176-8.191-0.539-12.154-2.263
	c-13.94-6.064-20.325-22.28-14.261-36.22s22.28-20.325,36.22-14.261S120.71,42.536,114.646,56.476z"/>
<path class="st1" d="M97.271,17.613c-21.468-2.64-41.012,12.624-43.651,34.093c-2.64,21.468,12.624,41.012,34.092,43.651
	c21.468,2.64,41.012-12.624,43.651-34.093C134.003,39.796,118.739,20.252,97.271,17.613z M114.646,56.476
	c-2.921,6.715-8.2,11.669-14.443,14.331c-2.938,1.54-6.253,2.309-9.623,2.193c-4.045,0.176-8.191-0.539-12.154-2.263
	c-13.94-6.064-20.325-22.28-14.261-36.22s22.28-20.325,36.22-14.261S120.71,42.536,114.646,56.476z"/>
<path class="st0" d="M100.385,20.256c-13.94-6.064-30.156,0.321-36.22,14.261s0.321,30.156,14.261,36.22
	c3.963,1.724,8.109,2.439,12.154,2.263c-2.353-0.081-4.729-0.58-7.019-1.576C73.8,67.178,69.33,55.823,73.576,46.062
	c4.246-9.761,15.601-14.232,25.362-9.986s14.232,15.601,9.986,25.362c-1.824,4.192-4.963,7.4-8.72,9.369
	c6.243-2.662,11.522-7.617,14.443-14.331C120.71,42.536,114.325,26.32,100.385,20.256z"/>
<path class="st1" d="M100.385,20.256c-13.94-6.064-30.156,0.321-36.22,14.261s0.321,30.156,14.261,36.22
	c3.963,1.724,8.109,2.439,12.154,2.263c-2.353-0.081-4.729-0.58-7.019-1.576C73.8,67.178,69.33,55.823,73.576,46.062
	c4.246-9.761,15.601-14.232,25.362-9.986s14.232,15.601,9.986,25.362c-1.824,4.192-4.963,7.4-8.72,9.369
	c6.243-2.662,11.522-7.617,14.443-14.331C120.71,42.536,114.325,26.32,100.385,20.256z"/>
<path class="st2" d="M100.385,20.256c-13.94-6.064-30.156,0.321-36.22,14.261s0.321,30.156,14.261,36.22
	c3.963,1.724,8.109,2.439,12.154,2.263c-2.353-0.081-4.729-0.58-7.019-1.576C73.8,67.178,69.33,55.823,73.576,46.062
	c4.246-9.761,15.601-14.232,25.362-9.986s14.232,15.601,9.986,25.362c-1.824,4.192-4.963,7.4-8.72,9.369
	c6.243-2.662,11.522-7.617,14.443-14.331C120.71,42.536,114.325,26.32,100.385,20.256z"/>
<path class="st0" d="M100.203,70.807C97.17,72.101,93.911,72.855,90.58,73C93.95,73.116,97.265,72.348,100.203,70.807z"/>
<path class="st1" d="M100.203,70.807C97.17,72.101,93.911,72.855,90.58,73C93.95,73.116,97.265,72.348,100.203,70.807z"/>
<path class="st3" d="M100.203,70.807C97.17,72.101,93.911,72.855,90.58,73C93.95,73.116,97.265,72.348,100.203,70.807z"/>
<path class="st0" d="M108.923,61.439c4.246-9.761-0.225-21.116-9.986-25.362s-21.116,0.225-25.362,9.986s0.225,21.116,9.986,25.362
	c2.29,0.996,4.666,1.495,7.019,1.576c3.33-0.145,6.589-0.899,9.623-2.193C103.96,68.838,107.099,65.631,108.923,61.439z"/>
<path class="st1" d="M108.923,61.439c4.246-9.761-0.225-21.116-9.986-25.362s-21.116,0.225-25.362,9.986s0.225,21.116,9.986,25.362
	c2.29,0.996,4.666,1.495,7.019,1.576c3.33-0.145,6.589-0.899,9.623-2.193C103.96,68.838,107.099,65.631,108.923,61.439z"/>
<path class="st2" d="M108.923,61.439c4.246-9.761-0.225-21.116-9.986-25.362s-21.116,0.225-25.362,9.986s0.225,21.116,9.986,25.362
	c2.29,0.996,4.666,1.495,7.019,1.576c3.33-0.145,6.589-0.899,9.623-2.193C103.96,68.838,107.099,65.631,108.923,61.439z"/>
<path class="st3" d="M108.923,61.439c4.246-9.761-0.225-21.116-9.986-25.362s-21.116,0.225-25.362,9.986s0.225,21.116,9.986,25.362
	c2.29,0.996,4.666,1.495,7.019,1.576c3.33-0.145,6.589-0.899,9.623-2.193C103.96,68.838,107.099,65.631,108.923,61.439z"/>
</svg>
